<svg width="90" height="70" viewBox="0 0 90 70" fill="none" xmlns="http://www.w3.org/2000/svg">
<path d="M49.0678 57.1416L43.4076 62.8018L44.1787 63.573L49.9237 69.318H2.44452C2.12318 69.318 1.80499 69.2546 1.50815 69.1315C1.21132 69.0084 0.941667 68.828 0.714622 68.6006C0.487577 68.3732 0.307595 68.1033 0.184973 67.8063C0.0623516 67.5092 -0.00050381 67.1909 3.04106e-06 66.8696V2.44452C3.04106e-06 1.79619 0.25755 1.17442 0.715987 0.715984C1.17442 0.257547 1.7962 0 2.44452 0L44.6723 0L40.7549 3.9174L42.5825 5.74501L51.3658 14.5283L42.0812 23.8129L48.8017 30.5295L51.6318 33.3596L41.7265 43.2611L52.3374 53.872L49.0678 57.1416Z" fill="#BFC5E5"/>
<path d="M89.9995 2.44452V66.8696C89.9995 67.5179 89.7419 68.1397 89.2835 68.5981C88.8251 69.0566 88.2033 69.3141 87.555 69.3141H60.8272L54.3149 62.8018L59.9712 57.1416L63.2409 53.872L52.6338 43.2611L62.5353 33.3596L52.9885 23.8129L62.2692 14.5283L53.4898 5.74501L51.666 3.9174L55.5796 0H87.555C88.2033 0 88.8251 0.257547 89.2835 0.715984C89.7419 1.17442 89.9995 1.79619 89.9995 2.44452Z" fill="#BFC5E5"/>
<path d="M41.7262 43.2611L52.3371 53.872L49.0675 57.1416L43.4073 62.8018L44.1784 63.5729H8.45527C7.80658 63.5719 7.18482 63.3135 6.72649 62.8545C6.26817 62.3954 6.01074 61.7733 6.01075 61.1246V8.19337C6.01024 7.87203 6.07309 7.55374 6.19572 7.25671C6.31834 6.95968 6.49832 6.68974 6.72536 6.46234C6.95241 6.23494 7.22206 6.05453 7.5189 5.93144C7.81573 5.80835 8.13392 5.74499 8.45527 5.745H42.5822L51.3655 14.5283L42.0809 23.8129L48.8014 30.5295L51.6315 33.3596L41.7262 43.2611Z" fill="#E6EBF8"/>
<path d="M83.9884 8.19337V61.1207C83.9884 61.7694 83.731 62.3916 83.2727 62.8506C82.8144 63.3097 82.1926 63.5681 81.5439 63.5691H55.0822L54.311 62.798L59.9674 57.1378L63.237 53.8681L52.6338 43.2611L62.5353 33.3596L52.9885 23.8129L62.2692 14.5283L53.4898 5.745H81.5439C81.8653 5.74499 82.1834 5.80835 82.4803 5.93144C82.7771 6.05453 83.0468 6.23494 83.2738 6.46234C83.5009 6.68974 83.6808 6.95968 83.8035 7.25671C83.9261 7.55374 83.9889 7.87203 83.9884 8.19337Z" fill="#E6EBF8"/>
<path d="M41.727 43.2611L52.3379 53.872L49.0683 57.1417H14.3669C13.6695 57.1417 13.0006 56.8646 12.5075 56.3715C12.0144 55.8783 11.7373 55.2095 11.7373 54.5121V43.9821C11.737 43.5758 11.8308 43.175 12.0115 42.8111C12.1921 42.4472 12.4546 42.13 12.7783 41.8846L18.6352 37.4505C19.092 37.1034 19.65 36.9155 20.2237 36.9155C20.7975 36.9155 21.3554 37.1034 21.8123 37.4505L29.1381 43.0143C29.5957 43.3596 30.1534 43.5464 30.7267 43.5464C31.3 43.5464 31.8576 43.3596 32.3152 43.0143L48.7907 30.5295L51.6208 33.3596L41.727 43.2611Z" fill="#BFC5E5"/>
<path d="M78.2126 42.5092V54.5121C78.2126 54.8584 78.1442 55.2012 78.0113 55.521C77.8784 55.8408 77.6837 56.1312 77.4383 56.3756C77.1929 56.6199 76.9016 56.8133 76.5813 56.9448C76.2609 57.0763 75.9177 57.1432 75.5714 57.1416H59.9712L63.2409 53.872L52.6338 43.2611L62.5353 33.3596L55.0089 25.8333C55.4632 25.5314 56.0002 25.3785 56.5454 25.3957C57.0906 25.413 57.6168 25.5996 58.0511 25.9297L77.1715 40.4117C77.4949 40.6576 77.757 40.9748 77.9376 41.3386C78.1182 41.7024 78.2123 42.1031 78.2126 42.5092Z" fill="#BFC5E5"/>
<path d="M19.0978 25.6675C23.1671 25.6675 26.466 22.3686 26.466 18.2992C26.466 14.2299 23.1671 10.931 19.0978 10.931C15.0284 10.931 11.7295 14.2299 11.7295 18.2992C11.7295 22.3686 15.0284 25.6675 19.0978 25.6675Z" fill="#BFC5E5"/>
</svg>
